<?xml version="1.0" encoding="UTF-8" standalone="no"?>
<svg
   xmlns:dc="http://purl.org/dc/elements/1.1/"
   xmlns:cc="http://creativecommons.org/ns#"
   xmlns:rdf="http://www.w3.org/1999/02/22-rdf-syntax-ns#"
   xmlns:svg="http://www.w3.org/2000/svg"
   xmlns="http://www.w3.org/2000/svg"
   viewBox="0 0 30.666668 34.666668"
   height="34.666668"
   width="30.666668"
   xml:space="preserve"
   id="svg2"
   version="1.1"><metadata
     id="metadata8"><rdf:RDF><cc:Work
         rdf:about=""><dc:format>image/svg+xml</dc:format><dc:type
           rdf:resource="http://purl.org/dc/dcmitype/StillImage" /></cc:Work></rdf:RDF></metadata><defs
     id="defs6" /><g
     transform="matrix(1.3333333,0,0,-1.3333333,0,34.666667)"
     id="g10"><g
       id="g12" /><g
       id="g14"><g
         transform="matrix(1,0,0,-1,5,25)"
         id="g16"><path
           id="path18"
           style="fill:none;stroke:#000000;stroke-width:1;stroke-linecap:butt;stroke-linejoin:miter;stroke-miterlimit:10;stroke-dasharray:none;stroke-opacity:1"
           d="m 10.06797,14.33822 c 0.06409,-0.05877 0.12722,-0.1192 0.18931,-0.18129 2.32363,-2.32359 2.32363,-6.090589 0,-8.41446 -2.323333,-2.323293 -6.090403,-2.323293 -8.414317,0 C 1.309136,6.276438 0.8980452,6.886571 0.6096551,7.537864 -0.1494557,5.012342 -0.5697548,2.232492 1.646525,0.8974441 2.649553,0.2940149 3.607777,0 4.578247,0 c 1.051716,0 1.928096,0.3547571 2.631231,0.639076 0.50032,0.2030443 0.935224,0.379282 1.291272,0.379282 0.356048,0 0.788862,-0.1762377 1.288883,-0.379282 C 10.49546,0.3547571 11.36975,0 12.42355,0 c 0.97047,0 1.9284,0.2940149 2.92963,0.8974441 2.76714,1.6674149 1.42539,5.5885649 0.44208,8.4531419 -0.34351,1.006094 -0.64161,1.874734 -0.69567,2.441954 -0.08573,0.89801 0.006,1.98567 0.09887,3.13663 0.14218,1.69679 0.28615,3.44833 -0.11082,4.84312 -0.66968,2.34784 -2.83106,4.07086 -2.92157,4.1433 -0.12396,0.09895 -0.29601,0.11093 -0.4352,0.03393 -0.1365,-0.07728 -0.2073,-0.22928 -0.17922,-0.37871 0.0079,-0.03714 0.60279,-3.10817 0.14701,-5.68646 -0.07963,-0.45047 -0.19134,-0.8859 -0.34385,-1.28748 -0.36061,-0.94504 -0.82709,-1.7005 -1.28684,-2.25865 z M 5.947528,15.8978 C 5.841539,16.1179 5.740793,16.35097 5.647287,16.59687 4.61887,19.29918 5.439991,23.52718 5.447458,23.57081 5.478224,23.72024 5.407134,23.87224 5.268538,23.94952 5.210292,23.98317 5.14189,24 5.075878,24 4.989853,24 4.903828,23.97148 4.833634,23.91559 4.742531,23.84315 2.584138,22.12013 1.914457,19.77229 1.588036,18.63394 1.625908,17.25797 1.726375,15.86931 l 0.991273,-0.99125 c 0.9738,0.65997 2.099615,0.99996 3.22988,1.01974 z" /></g><g
         transform="matrix(1,0,0,-1,1,21)"
         id="g20"><path
           id="path22"
           style="fill:none;stroke:#000000;stroke-width:1;stroke-linecap:butt;stroke-linejoin:miter;stroke-miterlimit:10;stroke-dasharray:none;stroke-opacity:1"
           d="m 14.25728,10.15693 c 2.32363,-2.323587 2.32363,-6.090589 0,-8.41446 -2.32333,-2.3232933 -6.090403,-2.3232933 -8.414317,0 C 3.792588,3.793387 3.552881,6.967927 5.121819,9.282546 L 0.3302837,14.07371 c -0.4403783,0.44065 -0.4403783,1.15514 0,1.5958 0.4406674,0.44065 1.1551613,0.44065 1.5958293,0 l 4.791535,-4.79145 c 2.314949,1.56891 5.488972,1.32949 7.539632,-0.72113 z" /></g></g></g></svg>