<?xml version="1.0" encoding="UTF-8" standalone="no"?>
<svg
   xmlns:dc="http://purl.org/dc/elements/1.1/"
   xmlns:cc="http://creativecommons.org/ns#"
   xmlns:rdf="http://www.w3.org/1999/02/22-rdf-syntax-ns#"
   xmlns:svg="http://www.w3.org/2000/svg"
   xmlns="http://www.w3.org/2000/svg"
   viewBox="0 0 29.333332 38.666668"
   height="38.666668"
   width="29.333332"
   xml:space="preserve"
   id="svg2"
   version="1.1"><metadata
     id="metadata8"><rdf:RDF><cc:Work
         rdf:about=""><dc:format>image/svg+xml</dc:format><dc:type
           rdf:resource="http://purl.org/dc/dcmitype/StillImage" /></cc:Work></rdf:RDF></metadata><defs
     id="defs6"><clipPath
       id="clipPath34"
       clipPathUnits="userSpaceOnUse"><path
         style="clip-rule:evenodd"
         id="path32"
         d="m 11,26.88875 c -0.30183,0 -0.54526,-0.24884 -0.54526,-0.55562 h 1.09052 c 0,0.30678 -0.24373,0.55562 -0.54526,0.55562 m 6,-3.33313 C 17,23.24884 16.75626,23 16.45474,23 H 5.545264 C 5.243737,23 5,23.24884 5,23.55562 c 0,0.30648 0.243737,0.55563 0.545264,0.55563 0,0 0.613834,0.06922 1.091127,0.55532 l 1.090827,1.11094 c 0,0 0.426091,0.55562 1.090828,0.55562 H 9.363609 C 9.363609,27.25348 10.09662,28 11,28 c 0.90398,0 1.63639,-0.74652 1.63639,-1.66687 h 0.54526 c 0.71594,0 1.09113,-0.55562 1.09113,-0.55562 l 1.09083,-1.11094 c 0.47729,-0.4861 1.09113,-0.55532 1.09113,-0.55532 C 16.75626,24.11125 17,23.8621 17,23.55562" /></clipPath></defs><g
     transform="matrix(1.3333333,0,0,-1.3333333,0,38.666667)"
     id="g10"><g
       id="g12" /><g
       id="g14"><g
         transform="matrix(1,0,0,-1,1,26)"
         id="g16"><path
           id="path18"
           style="fill:none;stroke:#000000;stroke-width:1;stroke-linecap:round;stroke-linejoin:miter;stroke-miterlimit:10;stroke-dasharray:none;stroke-opacity:1"
           d="M 10,0 C 9.674503,0 9.411974,0.2545164 9.411974,0.5682952 H 10.58803 C 10.58803,0.2545164 10.32517,0 10,0 Z m 5.29417,1.13659 c 0,-0.3137783 0.26286,-0.5682948 0.58835,-0.5682948 h 1.76473 C 18.94633,0.5682952 20,1.585737 20,2.840852 V 22.72744 C 20,23.98256 18.94633,25 17.64725,25 H 2.352751 C 1.053668,25 0,23.98256 0,22.72744 V 2.840852 C 0,1.585737 1.053668,0.5682952 2.352751,0.5682952 h 1.764725 c 0.325497,0 0.588349,0.5682948 0.588349,0.5682948 z" /></g><g
         transform="matrix(1,0,0,-1,5,9)"
         id="g20"><path
           id="path22"
           style="fill:none;stroke:#000000;stroke-width:1;stroke-linecap:round;stroke-linejoin:miter;stroke-miterlimit:10;stroke-dasharray:none;stroke-opacity:1"
           d="M 0,0 H 13" /></g><g
         transform="matrix(1,0,0,-1,5,6)"
         id="g24"><path
           id="path26"
           style="fill:none;stroke:#000000;stroke-width:1;stroke-linecap:round;stroke-linejoin:miter;stroke-miterlimit:10;stroke-dasharray:none;stroke-opacity:1"
           d="M 0,1 H 13" /></g></g><g
       id="g28"><g
         clip-path="url(#clipPath34)"
         id="g30"><path
           id="path36"
           style="fill:#f3f3f3;fill-opacity:1;fill-rule:nonzero;stroke:none"
           d="M 0,18 H 22 V 33 H 0 Z" /></g></g><g
       id="g38"><g
         transform="matrix(1,0,0,-1,5,28)"
         id="g40"><path
           id="path42"
           style="fill:none;stroke:#000000;stroke-width:1;stroke-linecap:round;stroke-linejoin:miter;stroke-miterlimit:10;stroke-dasharray:none;stroke-opacity:1"
           d="m 6,1.111247 c -0.301827,0 -0.545264,0.248841 -0.545264,0.555623 H 6.545264 C 6.545264,1.360088 6.301527,1.111247 6,1.111247 Z m 6,3.33313 C 12,4.751159 11.75626,5 11.45474,5 H 0.545264 C 0.2437369,5 0,4.751159 0,4.444377 0,4.137899 0.2437369,3.888753 0.545264,3.888753 c 0,0 0.613834,-0.069224 1.091127,-0.555318 L 2.727218,2.222493 c 0,0 0.426091,-0.555623 1.090828,-0.555623 H 4.363609 C 4.363609,0.7465235 5.096616,0 6,0 6.903982,0 7.636391,0.7465235 7.636391,1.66687 h 0.545264 c 0.71594,0 1.091127,0.555623 1.091127,0.555623 l 1.090828,1.110942 c 0.47729,0.486094 1.09113,0.555318 1.09113,0.555318 0.30152,0 0.54526,0.249146 0.54526,0.555624 z" /></g><g
         transform="matrix(1,0,0,-1,9,20)"
         id="g44"><path
           id="path46"
           style="fill:none;stroke:#000000;stroke-width:1;stroke-linecap:butt;stroke-linejoin:miter;stroke-miterlimit:10;stroke-dasharray:none;stroke-opacity:1"
           d="M 4,2 C 4,3.104632 3.104632,4 2,4 0.8953676,4 0,3.104632 0,2 0,0.8953676 0.8953676,0 2,0 3.104632,0 4,0.8953676 4,2 Z" /></g><g
         transform="matrix(1,0,0,-1,7,14)"
         id="g48"><path
           id="path50"
           style="fill:none;stroke:#000000;stroke-width:1;stroke-linecap:butt;stroke-linejoin:miter;stroke-miterlimit:10;stroke-dasharray:none;stroke-opacity:1"
           d="M 9,3 C 8.305885,1.245998 6.545869,0 4.482814,0 2.453079,0 0.7165627,1.206764 0,2.916798" /></g></g></g></svg>