<?xml version="1.0" encoding="UTF-8" standalone="no"?>
<svg
   xmlns:dc="http://purl.org/dc/elements/1.1/"
   xmlns:cc="http://creativecommons.org/ns#"
   xmlns:rdf="http://www.w3.org/1999/02/22-rdf-syntax-ns#"
   xmlns:svg="http://www.w3.org/2000/svg"
   xmlns="http://www.w3.org/2000/svg"
   xmlns:sodipodi="http://sodipodi.sourceforge.net/DTD/sodipodi-0.dtd"
   xmlns:inkscape="http://www.inkscape.org/namespaces/inkscape"
   viewBox="0 0 28 37.333332"
   height="37.333332"
   width="28"
   xml:space="preserve"
   id="svg2"
   version="1.1"
   sodipodi:docname="iconDocumentacionTabActive.svg"
   inkscape:version="0.92.2 5c3e80d, 2017-08-06"><sodipodi:namedview
     pagecolor="#ffffff"
     bordercolor="#666666"
     borderopacity="1"
     objecttolerance="10"
     gridtolerance="10"
     guidetolerance="10"
     inkscape:pageopacity="0"
     inkscape:pageshadow="2"
     inkscape:window-width="774"
     inkscape:window-height="480"
     id="namedview405"
     showgrid="false"
     inkscape:zoom="21.776786"
     inkscape:cx="14"
     inkscape:cy="18.666666"
     inkscape:window-x="0"
     inkscape:window-y="0"
     inkscape:window-maximized="0"
     inkscape:current-layer="svg2" /><metadata
     id="metadata8"><rdf:RDF><cc:Work
         rdf:about=""><dc:format>image/svg+xml</dc:format><dc:type
           rdf:resource="http://purl.org/dc/dcmitype/StillImage" /><dc:title></dc:title></cc:Work></rdf:RDF></metadata><defs
     id="defs6" /><g
     transform="matrix(1.3333333,0,0,-1.3333333,0,37.333333)"
     id="g10"
     style="stroke:#0066ac;stroke-opacity:1"><g
       id="g12"
       style="stroke:#0066ac;stroke-opacity:1" /><g
       id="g14"
       style="stroke:#0066ac;stroke-opacity:1"><g
         transform="matrix(1,0,0,-1,3.010853,27)"
         id="g16"
         style="stroke:#0066ac;stroke-opacity:1"><path
           id="path18"
           style="fill:none;stroke:#0066ac;stroke-width:1;stroke-linecap:round;stroke-linejoin:miter;stroke-miterlimit:10;stroke-dasharray:none;stroke-opacity:1"
           d="m 14.97829,23.98843 c 1.12927,-0.11456 2.01086,-1.0654 2.01086,-2.22111 V 2.232679 C 16.98915,0.9997574 15.98584,0 14.74884,0 H 2.229453 C 1.067316,0 0.1114373,0.8824147 0,2.011574 0.07544181,2.003921 0.151989,2 0.2294527,2 H 12.74884 c 1.237,0 2.24031,0.999757 2.24031,2.232679 V 23.76732 c 0,0.07461 -0.0037,0.14837 -0.01086,0.22111 z" /></g><g
         transform="matrix(1,0,0,-1,1,25)"
         id="g20"
         style="stroke:#0066ac;stroke-opacity:1"><path
           id="path22"
           style="fill:none;stroke:#0066ac;stroke-width:1;stroke-linecap:round;stroke-linejoin:miter;stroke-miterlimit:10;stroke-dasharray:none;stroke-opacity:1"
           d="M 14.75969,0 C 15.99669,0 17,0.9997574 17,2.232679 V 21.76732 C 17,23.00024 15.99669,24 14.75969,24 H 2.240305 C 1.00331,24 0,23.00024 0,21.76732 V 2.232679 C 0,0.9997574 1.00331,0 2.240305,0 Z" /></g><g
         transform="matrix(1,0,0,-1,4,20)"
         id="g24"
         style="stroke:#0066ac;stroke-opacity:1"><path
           id="path26"
           style="fill:none;stroke:#0066ac;stroke-width:1;stroke-linecap:round;stroke-linejoin:miter;stroke-miterlimit:10;stroke-dasharray:none;stroke-opacity:1"
           d="M 0,0 H 11" /></g><g
         transform="matrix(1,0,0,-1,4,15)"
         id="g28"
         style="stroke:#0066ac;stroke-opacity:1"><path
           id="path30"
           style="fill:none;stroke:#0066ac;stroke-width:1;stroke-linecap:round;stroke-linejoin:miter;stroke-miterlimit:10;stroke-dasharray:none;stroke-opacity:1"
           d="M 0,0 H 11" /></g><g
         transform="matrix(1,0,0,-1,4,11)"
         id="g32"
         style="stroke:#0066ac;stroke-opacity:1"><path
           id="path34"
           style="fill:none;stroke:#0066ac;stroke-width:1;stroke-linecap:round;stroke-linejoin:miter;stroke-miterlimit:10;stroke-dasharray:none;stroke-opacity:1"
           d="M 0,0 H 11" /></g><g
         transform="matrix(1,0,0,-1,4,6)"
         id="g36"
         style="stroke:#0066ac;stroke-opacity:1"><path
           id="path38"
           style="fill:none;stroke:#0066ac;stroke-width:1;stroke-linecap:round;stroke-linejoin:miter;stroke-miterlimit:10;stroke-dasharray:none;stroke-opacity:1"
           d="M 0,0 H 11" /></g></g></g></svg>