<?xml version="1.0" encoding="UTF-8" standalone="no"?>
<svg
   xmlns:dc="http://purl.org/dc/elements/1.1/"
   xmlns:cc="http://creativecommons.org/ns#"
   xmlns:rdf="http://www.w3.org/1999/02/22-rdf-syntax-ns#"
   xmlns:svg="http://www.w3.org/2000/svg"
   xmlns="http://www.w3.org/2000/svg"
   viewBox="0 0 28 37.333332"
   height="37.333332"
   width="28"
   xml:space="preserve"
   id="svg2"
   version="1.1"><metadata
     id="metadata8"><rdf:RDF><cc:Work
         rdf:about=""><dc:format>image/svg+xml</dc:format><dc:type
           rdf:resource="http://purl.org/dc/dcmitype/StillImage" /></cc:Work></rdf:RDF></metadata><defs
     id="defs6" /><g
     transform="matrix(1.3333333,0,0,-1.3333333,0,37.333333)"
     id="g10"><g
       id="g12" /><g
       id="g14"><g
         transform="matrix(1,0,0,-1,3.010853,27)"
         id="g16"><path
           id="path18"
           style="fill:none;stroke:#010000;stroke-width:1;stroke-linecap:round;stroke-linejoin:miter;stroke-miterlimit:10;stroke-dasharray:none;stroke-opacity:1"
           d="m 14.97829,23.98843 c 1.12927,-0.11456 2.01086,-1.0654 2.01086,-2.22111 V 2.232679 C 16.98915,0.9997574 15.98584,0 14.74884,0 H 2.229453 C 1.067316,0 0.1114373,0.8824147 0,2.011574 0.07544181,2.003921 0.151989,2 0.2294527,2 H 12.74884 c 1.237,0 2.24031,0.999757 2.24031,2.232679 V 23.76732 c 0,0.07461 -0.0037,0.14837 -0.01086,0.22111 z" /></g><g
         transform="matrix(1,0,0,-1,1,25)"
         id="g20"><path
           id="path22"
           style="fill:none;stroke:#010000;stroke-width:1;stroke-linecap:round;stroke-linejoin:miter;stroke-miterlimit:10;stroke-dasharray:none;stroke-opacity:1"
           d="M 14.75969,0 C 15.99669,0 17,0.9997574 17,2.232679 V 21.76732 C 17,23.00024 15.99669,24 14.75969,24 H 2.240305 C 1.00331,24 0,23.00024 0,21.76732 V 2.232679 C 0,0.9997574 1.00331,0 2.240305,0 Z" /></g><g
         transform="matrix(1,0,0,-1,4,20)"
         id="g24"><path
           id="path26"
           style="fill:none;stroke:#000000;stroke-width:1;stroke-linecap:round;stroke-linejoin:miter;stroke-miterlimit:10;stroke-dasharray:none;stroke-opacity:1"
           d="M 0,0 H 11" /></g><g
         transform="matrix(1,0,0,-1,4,15)"
         id="g28"><path
           id="path30"
           style="fill:none;stroke:#000000;stroke-width:1;stroke-linecap:round;stroke-linejoin:miter;stroke-miterlimit:10;stroke-dasharray:none;stroke-opacity:1"
           d="M 0,0 H 11" /></g><g
         transform="matrix(1,0,0,-1,4,11)"
         id="g32"><path
           id="path34"
           style="fill:none;stroke:#000000;stroke-width:1;stroke-linecap:round;stroke-linejoin:miter;stroke-miterlimit:10;stroke-dasharray:none;stroke-opacity:1"
           d="M 0,0 H 11" /></g><g
         transform="matrix(1,0,0,-1,4,6)"
         id="g36"><path
           id="path38"
           style="fill:none;stroke:#000000;stroke-width:1;stroke-linecap:round;stroke-linejoin:miter;stroke-miterlimit:10;stroke-dasharray:none;stroke-opacity:1"
           d="M 0,0 H 11" /></g></g></g></svg>